<svg width="44" height="44" viewBox="0 0 44 44" fill="none" xmlns="http://www.w3.org/2000/svg">
<g clip-path="url(#clip0)">
<path d="M44 22C44 34.1503 34.1503 44 22 44C9.84974 44 0 34.1503 0 22C0 9.84974 9.84974 0 22 0C34.1503 0 44 9.84974 44 22Z" fill="white"/>
<g clip-path="url(#clip1)">
<path d="M44 22C44 34.1503 34.1503 44 22 44C9.84974 44 0 34.1503 0 22C0 9.84974 9.84974 0 22 0C34.1503 0 44 9.84974 44 22Z" fill="#FFE7BA"/>
</g>
<g clip-path="url(#clip2)">
<path d="M14.8389 11.0933L14.5839 12.619L12.3706 35.2512L24.5764 37.2907L29.8412 15.1683L30.0961 13.6426L14.8389 11.0933Z" fill="#FFB141"/>
<path d="M29.3322 17.1743L25.1151 34.0697L12.6584 31.9883L14.4141 14.6816L29.3322 17.1743Z" fill="#E57905"/>
<path d="M21.2879 20.2399C19.6204 19.9907 18.0768 21.0519 17.8443 22.6073C17.6118 24.1626 18.7778 25.6288 20.4452 25.878C22.1127 26.1272 23.6564 25.066 23.8888 23.5107C24.1219 21.9513 22.9554 20.4892 21.2879 20.2399ZM20.6844 24.2781C19.9635 24.1704 19.459 23.536 19.5595 22.8636C19.66 22.1913 20.328 21.7321 21.0488 21.8398C21.7696 21.9476 22.2741 22.582 22.1736 23.2543C22.0731 23.9267 21.4052 24.3859 20.6844 24.2781Z" fill="white"/>
<path d="M22.5724 27.9694L17.7998 27.2561C17.7062 27.2421 17.6393 27.1603 17.652 27.0753L17.8 26.0847C17.8127 25.9997 17.9006 25.941 17.9943 25.955L22.7668 26.6683C22.8605 26.6823 22.9274 26.7641 22.9147 26.8491L22.7666 27.8397C22.7539 27.9247 22.666 27.9834 22.5724 27.9694Z" fill="white"/>
<g filter="url(#filter0_i)">
<path d="M16.6216 5.6406L29.8446 7.85003C30.1143 7.8951 30.3552 8.04549 30.514 8.26812C30.6729 8.49074 30.7368 8.76737 30.6918 9.03713L30.0969 12.5972L14.8397 10.0478L15.4345 6.48779C15.4796 6.21803 15.63 5.97722 15.8526 5.81834C16.0753 5.65946 16.3519 5.59552 16.6216 5.6406Z" fill="#874D00"/>
</g>
<path d="M14.9244 9.53925L30.1816 12.0886C30.4514 12.1337 30.6922 12.2841 30.8511 12.5067C31.0099 12.7293 31.0739 13.0059 31.0288 13.2757L30.6889 15.31L13.3974 12.4207L13.7373 10.3864C13.7823 10.1167 13.9327 9.87587 14.1554 9.71699C14.378 9.55811 14.6546 9.49417 14.9244 9.53925Z" fill="#612500"/>
<path d="M12.9209 29.1161L12.7129 29.035L12.9209 29.1161Z" fill="#F5CBAA"/>
<g filter="url(#filter1_i)">
<path d="M16.9028 18.9281L14.8685 18.5882C14.0259 18.4474 13.2286 19.0164 13.0878 19.859C12.947 20.7016 13.516 21.4989 14.3586 21.6397L16.3929 21.9796C17.2356 22.1204 18.0328 21.5514 18.1736 20.7088C18.3144 19.8662 17.7454 19.0689 16.9028 18.9281Z" fill="#FFBB96"/>
</g>
<g filter="url(#filter2_i)">
<path d="M16.0219 21.7463L13.9876 21.4064C13.145 21.2656 12.3478 21.8345 12.207 22.6772C12.0662 23.5198 12.6351 24.317 13.4778 24.4578L15.5121 24.7977C16.3547 24.9385 17.1519 24.3696 17.2927 23.5269C17.4335 22.6843 16.8646 21.8871 16.0219 21.7463Z" fill="#FFBB96"/>
</g>
<g filter="url(#filter3_i)">
<path d="M15.5112 24.7978L13.4769 24.4578C12.6343 24.317 11.837 24.886 11.6962 25.7286C11.5554 26.5713 12.1244 27.3685 12.967 27.5093L15.0013 27.8492C15.844 27.99 16.6412 27.421 16.782 26.5784C16.9228 25.7358 16.3538 24.9386 15.5112 24.7978Z" fill="#FFBB96"/>
</g>
<g filter="url(#filter4_i)">
<path d="M14.0517 27.9248L13.0345 27.7549C12.1919 27.6141 11.3947 28.183 11.2539 29.0257C11.1131 29.8683 11.682 30.6655 12.5246 30.8063L13.5418 30.9763C14.3844 31.1171 15.1817 30.5481 15.3225 29.7055C15.4632 28.8629 14.8943 28.0656 14.0517 27.9248Z" fill="#FFBB96"/>
</g>
<g filter="url(#filter5_i)">
<path d="M38.3093 36.4486C37.8007 36.3637 35.5313 35.9845 34.834 35.868L32.6159 35.4973C32.5698 35.4896 32.5225 35.4946 32.479 35.5117C30.3412 36.1628 28.0922 35.966 26.4988 35.1723C26.208 35.0274 25.3003 34.3709 25.3003 34.3709C25.2482 34.3449 25.2064 34.3021 25.1817 34.2493C25.157 34.1965 25.151 34.1369 25.1645 34.0803L26.2652 29.454L27.3177 25.0319C27.3309 24.9766 27.3254 24.9184 27.3021 24.8665C27.0106 24.2181 26.6617 21.9548 25.8031 21.8124L23.142 21.3678C22.6699 21.2889 22.2485 21.0257 21.9705 20.6361C21.6924 20.2465 21.5805 19.7624 21.6594 19.2903C21.7383 18.8183 22.0015 18.3968 22.3911 18.1188C23.908 17.0363 27.9164 18.456 29.331 19.2653C30.6217 20.0037 30.7434 20.1983 31.4777 21.018C32.6258 22.2996 32.7857 25.3891 34.0914 26.3082C34.123 26.3304 34.1592 26.3453 34.1973 26.3517L42.523 27.9171C41.8998 31.6466 39.1574 35.5448 38.3093 36.4486Z" fill="#FFBB96"/>
</g>
<g filter="url(#filter6_i)">
<path d="M43.6562 25.4375L39.1875 25.4375C39.1875 25.4375 38.8437 28.1875 37.6406 30.7656C36.4375 33.3437 34.0312 36.7812 34.0312 36.7812L37.1246 38.0416C37.1246 38.0416 39.1875 36.0937 41.25 32.8281C43.3125 29.5625 43.6562 25.4375 43.6562 25.4375Z" fill="url(#paint0_linear)"/>
</g>
</g>
</g>
<defs>
<filter id="filter0_i" x="14.8398" y="5.6265" width="15.8662" height="6.97066" filterUnits="userSpaceOnUse" color-interpolation-filters="sRGB">
<feFlood flood-opacity="0" result="BackgroundImageFix"/>
<feBlend mode="normal" in="SourceGraphic" in2="BackgroundImageFix" result="shape"/>
<feColorMatrix in="SourceAlpha" type="matrix" values="0 0 0 0 0 0 0 0 0 0 0 0 0 0 0 0 0 0 127 0" result="hardAlpha"/>
<feOffset dy="1.5"/>
<feComposite in2="hardAlpha" operator="arithmetic" k2="-1" k3="1"/>
<feColorMatrix type="matrix" values="0 0 0 0 1 0 0 0 0 1 0 0 0 0 1 0 0 0 0.3 0"/>
<feBlend mode="normal" in2="shape" result="effect1_innerShadow"/>
</filter>
<filter id="filter1_i" x="13.0664" y="18.5668" width="5.12853" height="3.43414" filterUnits="userSpaceOnUse" color-interpolation-filters="sRGB">
<feFlood flood-opacity="0" result="BackgroundImageFix"/>
<feBlend mode="normal" in="SourceGraphic" in2="BackgroundImageFix" result="shape"/>
<feColorMatrix in="SourceAlpha" type="matrix" values="0 0 0 0 0 0 0 0 0 0 0 0 0 0 0 0 0 0 127 0" result="hardAlpha"/>
<feOffset dy="-2"/>
<feComposite in2="hardAlpha" operator="arithmetic" k2="-1" k3="1"/>
<feColorMatrix type="matrix" values="0 0 0 0 1 0 0 0 0 0.611765 0 0 0 0 0.431373 0 0 0 1 0"/>
<feBlend mode="normal" in2="shape" result="effect1_innerShadow"/>
</filter>
<filter id="filter2_i" x="12.1855" y="21.385" width="5.12853" height="3.43415" filterUnits="userSpaceOnUse" color-interpolation-filters="sRGB">
<feFlood flood-opacity="0" result="BackgroundImageFix"/>
<feBlend mode="normal" in="SourceGraphic" in2="BackgroundImageFix" result="shape"/>
<feColorMatrix in="SourceAlpha" type="matrix" values="0 0 0 0 0 0 0 0 0 0 0 0 0 0 0 0 0 0 127 0" result="hardAlpha"/>
<feOffset dy="-2"/>
<feComposite in2="hardAlpha" operator="arithmetic" k2="-1" k3="1"/>
<feColorMatrix type="matrix" values="0 0 0 0 1 0 0 0 0 0.611765 0 0 0 0 0.431373 0 0 0 1 0"/>
<feBlend mode="normal" in2="shape" result="effect1_innerShadow"/>
</filter>
<filter id="filter3_i" x="11.6748" y="24.4365" width="5.12853" height="3.43414" filterUnits="userSpaceOnUse" color-interpolation-filters="sRGB">
<feFlood flood-opacity="0" result="BackgroundImageFix"/>
<feBlend mode="normal" in="SourceGraphic" in2="BackgroundImageFix" result="shape"/>
<feColorMatrix in="SourceAlpha" type="matrix" values="0 0 0 0 0 0 0 0 0 0 0 0 0 0 0 0 0 0 127 0" result="hardAlpha"/>
<feOffset dy="-2"/>
<feComposite in2="hardAlpha" operator="arithmetic" k2="-1" k3="1"/>
<feColorMatrix type="matrix" values="0 0 0 0 1 0 0 0 0 0.611765 0 0 0 0 0.431373 0 0 0 1 0"/>
<feBlend mode="normal" in2="shape" result="effect1_innerShadow"/>
</filter>
<filter id="filter4_i" x="11.2324" y="27.7335" width="4.11138" height="3.26419" filterUnits="userSpaceOnUse" color-interpolation-filters="sRGB">
<feFlood flood-opacity="0" result="BackgroundImageFix"/>
<feBlend mode="normal" in="SourceGraphic" in2="BackgroundImageFix" result="shape"/>
<feColorMatrix in="SourceAlpha" type="matrix" values="0 0 0 0 0 0 0 0 0 0 0 0 0 0 0 0 0 0 127 0" result="hardAlpha"/>
<feOffset dy="-2"/>
<feComposite in2="hardAlpha" operator="arithmetic" k2="-1" k3="1"/>
<feColorMatrix type="matrix" values="0 0 0 0 1 0 0 0 0 0.611765 0 0 0 0 0.431373 0 0 0 1 0"/>
<feBlend mode="normal" in2="shape" result="effect1_innerShadow"/>
</filter>
<filter id="filter5_i" x="21.6348" y="17.7271" width="20.8882" height="18.7215" filterUnits="userSpaceOnUse" color-interpolation-filters="sRGB">
<feFlood flood-opacity="0" result="BackgroundImageFix"/>
<feBlend mode="normal" in="SourceGraphic" in2="BackgroundImageFix" result="shape"/>
<feColorMatrix in="SourceAlpha" type="matrix" values="0 0 0 0 0 0 0 0 0 0 0 0 0 0 0 0 0 0 127 0" result="hardAlpha"/>
<feOffset dy="-2"/>
<feComposite in2="hardAlpha" operator="arithmetic" k2="-1" k3="1"/>
<feColorMatrix type="matrix" values="0 0 0 0 1 0 0 0 0 0.611765 0 0 0 0 0.431373 0 0 0 1 0"/>
<feBlend mode="normal" in2="shape" result="effect1_innerShadow"/>
</filter>
<filter id="filter6_i" x="34.0312" y="25.4375" width="9.62499" height="12.6042" filterUnits="userSpaceOnUse" color-interpolation-filters="sRGB">
<feFlood flood-opacity="0" result="BackgroundImageFix"/>
<feBlend mode="normal" in="SourceGraphic" in2="BackgroundImageFix" result="shape"/>
<feColorMatrix in="SourceAlpha" type="matrix" values="0 0 0 0 0 0 0 0 0 0 0 0 0 0 0 0 0 0 127 0" result="hardAlpha"/>
<feOffset dy="2"/>
<feComposite in2="hardAlpha" operator="arithmetic" k2="-1" k3="1"/>
<feColorMatrix type="matrix" values="0 0 0 0 0 0 0 0 0 0 0 0 0 0 0 0 0 0 0.25 0"/>
<feBlend mode="normal" in2="shape" result="effect1_innerShadow"/>
</filter>
<linearGradient id="paint0_linear" x1="39.8196" y1="24.0625" x2="39.8196" y2="39.1663" gradientUnits="userSpaceOnUse">
<stop stop-color="#39A5B8"/>
<stop offset="0.640138" stop-color="#307D8B"/>
<stop offset="1" stop-color="#00333C"/>
</linearGradient>
<clipPath id="clip0">
<rect width="44" height="44" fill="white"/>
</clipPath>
<clipPath id="clip1">
<rect width="44" height="44" rx="22" fill="white"/>
</clipPath>
<clipPath id="clip2">
<rect width="36.0484" height="33" fill="white" transform="translate(11.2822 3.18011) rotate(9.48595)"/>
</clipPath>
</defs>
</svg>
